# xmcd CD database file
#
# Track frame offsets:
#	150
#	23390
#	47835
#	82350
#
# Disc length: 1190 seconds
#
# Revision: 2
# Processed by: cddbd v1.5PL3 Copyright (c) Steve Scherf et al.
# Submitted via: CDex 1.51
#
DISCID=2904a404
DTITLE=Favorite blue - close my love
DYEAR=1998
DGENRE=JPop
TTITLE0=close my love
TTITLE1=close my love [t.kimura plant mix]
TTITLE2=close my love [Instrumental]
TTITLE3=CD-EXTRA
EXTD=YEAR: 1998
EXTT0=
EXTT1=
EXTT2=
EXTT3=
PLAYORDER=
